<?xml version="1.0" standalone="no"?><!DOCTYPE svg PUBLIC "-//W3C//DTD SVG 1.1//EN" "http://www.w3.org/Graphics/SVG/1.1/DTD/svg11.dtd"><svg class="icon" height="512" viewBox="0 0 1024 1024" version="1.1" xmlns="http://www.w3.org/2000/svg"><path d="M547.392 839.1466666666668l14.528-17.6c10.751999999999999-13.311999999999998 264.448-326.4 264.448-474.304 0-153.08799999999997-125.056-277.568-278.9119999999999-277.568-153.728 0-278.9119999999999 124.47999999999999-278.912 277.5679999999999 0 147.904 253.69599999999997 461.0559999999999 264.448 474.30400000000003l14.4 17.6zM424.768 348.65066666666667c0-68.992 56.95999999999999-125.05599999999998 126.84799999999998-125.05599999999998 70.016 0 126.976 56.064000000000014 126.976 125.056s-56.95999999999999 125.05599999999998-126.976 125.056c-69.952-0.06400000000000006-126.84799999999998-56.12800000000001-126.84799999999998-125.056z m0 0" fill="#8a8a8a" /><path d="M650.176 748.3306666666665c-11.712 13.184-22.271999999999995 24.896-31.360000000000003 34.816 97.98399999999998 4.863999999999997 169.152 19.519999999999996 169.15199999999996 36.73599999999999 0 21.248-107.71199999999997 38.527999999999984-240.448 38.528000000000034-132.864 0-240.512-17.280000000000015-240.512-38.52800000000002 0-17.28 71.168-31.808 169.152-36.73599999999999a1930.88 1930.88 0 0 1-31.359999999999996-34.816c-103.232 11.328000000000003-176.192 39.104-176.192 71.552 0 42.496 124.864 76.992 278.976 76.99199999999999 153.98399999999998 0 278.84799999999996-34.49599999999998 278.84799999999996-76.99199999999998-0.06400000000000361-32.384-73.088-60.224000000000004-176.25599999999997-71.55200000000002z m0 0" fill="#8a8a8a" /></svg>